{"title":"Ant-Man (2015) hevc.mp4","uid":12938529,"size":2459552265,"categoryP":"video","categoryS":"hd___movies","magnet":"?xt=urn:btih:30f72a4b3b065dddb0b3c6974025554f1c3d37db&amp;dn=Ant-Man+%282015%29+hevc.mp4&amp;tr=udp%3A%2F%2Ftracker.leechers-paradise.org%3A6969&amp;tr=udp%3A%2F%2Fzer0day.ch%3A1337&amp;tr=udp%3A%2F%2Fopen.demonii.com%3A1337&amp;tr=udp%3A%2F%2Ftracker.coppersurfer.tk%3A6969&amp;tr=udp%3A%2F%2Fexodus.desync.com%3A6969","seeders":0,"leechers":0,"uploader":"theonlycure","files":1,"time":1449607887,"description":"Ant-Man (2015)\r\nIMDb tt0478970\r\nAction, Adventure, Sci-Fi\r\nDirector: Peyton Reed\r\nWriters: Edgar Wright (screenplay), Joe Cornish (screenplay)\r\nStars: Paul Rudd, Michael Douglas, Corey Stoll\r\nStoryline:\r\nArmed with the astonishing ability to shrink in scale but increase in strength, con-man Scott Lang must embrace his inner-hero and help his mentor, Dr. Hank Pym, protect the secret behind his spectacular Ant-Man suit from a new generation of towering threats. Against seemingly insurmountable obstacles, Pym and Lang must plan and pull off a heist that will save the world. Written by @PtotheSmizzo\r\n\r\n\r\nFormat                                   : MPEG-4\r\nFormat profile                           : Base Media\r\nCodec ID                                 : isom\r\nFile size                                : 2.29 GiB\r\nDuration                                 : 1h 57mn\r\nOverall bit rate                         : 2800 Kbps\r\nWriting application                      : Lavf57.13.100\r\n\r\nVideo\r\nID                                       : 1\r\nFormat                                   : HEVC\r\nFormat/Info                              : High Efficiency Video Coding\r\nFormat profile                           :   @Main\r\nCodec ID                                 : hev1\r\nCodec ID/Info                            : High Efficiency Video Coding\r\nDuration                                 : 1h 57mn\r\nBit rate                                 : 2284 Kbps\r\nWidth                                    : 1920 pixels\r\nHeight                                   : 1080 pixels\r\nDisplay aspect ratio                     : 16:9\r\nFrame rate mode                          : Constant\r\nFrame rate                               : 23.976 fps\r\nColor space                              : YUV\r\nChroma subsampling                       : 4:2:0\r\nBit depth                                : 8 bits\r\nScan type                                : Progressive\r\nBits/(Pixel*Frame)                       : 0.046\r\nStream size                              : 1.87 GiB (82%)\r\n\r\nAudio\r\nID                                       : 2\r\nFormat                                   : AAC\r\nFormat/Info                              : Advanced Audio Codec\r\nFormat profile                           : LC\r\nCodec ID                                 : 40\r\nDuration                                 : 1h 57mn\r\nBit rate mode                            : Constant\r\nBit rate                                 : 512 Kbps\r\nChannel(s)                               : 2 channels\r\nChannel(s)_Original                      : 8 channels\r\nChannel positions                        : Front: L C R, Side: 4, LFE\r\nSampling rate                            : 48.0 KHz\r\nCompression mode                         : Lossy\r\nStream size                              : 429 MiB (18%)","torrent":{"xt":"urn:btih:30f72a4b3b065dddb0b3c6974025554f1c3d37db","amp;dn":"Ant-Man+%282015%29+hevc.mp4","amp;tr":["udp%3A%2F%2Ftracker.leechers-paradise.org%3A6969","udp%3A%2F%2Fzer0day.ch%3A1337","udp%3A%2F%2Fopen.demonii.com%3A1337","udp%3A%2F%2Ftracker.coppersurfer.tk%3A6969","udp%3A%2F%2Fexodus.desync.com%3A6969"],"infoHash":"30f72a4b3b065dddb0b3c6974025554f1c3d37db","infoHashBuffer":{"type":"Buffer","data":[48,247,42,75,59,6,93,221,176,179,198,151,64,37,85,79,28,61,55,219]},"announce":[],"urlList":[]}}